# xmcd
#
# Track frame offsets:
#	182
#	23977
#	47760
#	110277
#	122465
#	154277
#	195130
#
# Disc length: 3196 seconds
#
# Revision: 1
# Processed by: cddbd v1.5PL3 Copyright (c) Steve Scherf et al.
# Submitted via: audiograbber 1.83.01
#
DISCID=4d0c7a07
DTITLE=The Doors - Unknown Soldiers
DYEAR=1993
DGENRE=Blues
TTITLE0=Back Door Man
TTITLE1=Break On Through
TTITLE2=When The Music's Over
TTITLE3=Close To You
TTITLE4=Manish Boy
TTITLE5=Light My Fire
TTITLE6=The Soft Parade
EXTD=Live In Monterey, December 12th 1967
EXTT0=
EXTT1=
EXTT2=
EXTT3=
EXTT4=
EXTT5=
EXTT6=Bonus track: Live In New York City, PBS TV-Studio, May 23rd 1969
PLAYORDER=
